<?xml version="1.0" standalone="no"?>
<!DOCTYPE svg PUBLIC "-//W3C//DTD SVG 20010904//EN"
 "http://www.w3.org/TR/2001/REC-SVG-20010904/DTD/svg10.dtd">
<svg version="1.0" xmlns="http://www.w3.org/2000/svg"
 width="1920.000000pt" height="960.000000pt" viewBox="0 0 1920.000000 960.000000"
 preserveAspectRatio="xMidYMid meet">
<metadata>
Created by potrace 1.16, written by Peter Selinger 2001-2019
</metadata>
<g transform="translate(0.000000,960.000000) scale(0.100000,-0.100000)"
fill="#000000" stroke="none">
<path d="M17240 7955 c8 -2 56 -9 105 -15 526 -69 1018 -418 1270 -901 115
-221 172 -428 190 -691 l7 -98 -9226 0 -9226 0 0 161 c0 138 3 174 25 257 121
478 434 871 876 1101 88 46 228 101 344 135 46 14 47 14 10 9 -77 -11 -269
-74 -389 -128 -670 -303 -1126 -920 -1215 -1645 -15 -116 -15 -2554 0 -2670
57 -464 262 -884 594 -1215 330 -331 751 -537 1215 -594 119 -15 15441 -15
15560 0 464 57 885 263 1215 594 332 331 537 751 594 1215 15 116 15 2554 0
2670 -57 465 -262 884 -594 1215 -331 332 -751 537 -1215 594 -74 10 -180 14
-140 6z m-11659 -2094 c79 -20 233 -77 288 -105 l31 -17 0 -139 c0 -107 -3
-140 -13 -140 -7 0 -38 19 -70 43 -281 210 -657 235 -871 57 -67 -55 -101
-102 -146 -195 -57 -117 -74 -222 -67 -410 6 -173 20 -235 80 -350 74 -142
206 -245 354 -275 79 -17 301 -7 373 15 86 27 216 95 281 147 32 26 64 48 69
48 6 0 10 -54 10 -141 l0 -140 -74 -34 c-176 -80 -336 -117 -511 -117 -344 0
-595 133 -725 383 -80 154 -110 290 -110 502 0 319 91 549 280 711 94 80 236
146 371 171 106 21 349 13 450 -14z m4697 -108 l-3 -118 -125 0 -125 0 -3 104
c-1 58 0 111 2 118 4 10 36 13 131 13 l126 0 -3 -117z m-930 -140 l2 -183 220
0 220 0 0 -95 0 -95 -222 -2 -223 -3 -3 -245 c-1 -135 1 -313 6 -396 8 -128
12 -157 32 -191 35 -63 80 -83 187 -83 51 0 111 6 139 15 86 26 84 28 84 -85
l0 -99 -37 -10 c-89 -25 -230 -35 -309 -23 -147 23 -225 75 -278 185 -49 101
-56 171 -56 583 l0 354 -70 0 -70 0 0 95 0 95 70 0 70 0 0 178 c0 98 3 182 7
186 4 3 57 5 117 4 l111 -3 3 -182z m-2425 -183 c76 -29 168 -91 217 -148 48
-55 122 -203 142 -282 20 -85 18 -368 -5 -450 -64 -231 -222 -391 -432 -435
-279 -59 -541 57 -655 290 -64 129 -75 185 -75 380 0 148 3 180 23 250 73 251
250 404 491 424 105 8 226 -4 294 -29z m1537 5 c70 -23 160 -111 194 -187 46
-104 48 -130 53 -630 l5 -478 -115 0 -115 0 -5 448 c-3 301 -8 462 -16 492
-27 102 -92 154 -207 166 -98 10 -228 -33 -356 -119 l-48 -32 0 -477 0 -478
-115 0 -115 0 2 643 3 642 113 3 112 3 0 -67 0 -66 23 16 c65 47 179 109 227
123 113 33 256 33 360 -2z m3087 -15 c69 -34 129 -96 162 -166 45 -95 49 -143
53 -639 l3 -470 -112 -3 -113 -3 0 388 c0 435 -7 532 -45 609 -31 64 -75 92
-162 107 -104 17 -230 -19 -358 -103 l-65 -42 0 -479 0 -479 -115 0 -115 0 0
645 0 645 115 0 115 0 0 -65 0 -66 58 39 c73 50 146 87 202 102 126 35 281 27
377 -20z m2855 16 c111 -32 218 -126 276 -241 43 -86 56 -154 56 -300 l1 -140
-469 -3 -469 -2 6 -64 c15 -163 110 -292 254 -346 72 -27 204 -36 300 -21 84
13 204 58 284 107 31 19 62 34 68 34 7 0 11 -38 11 -120 l0 -121 -45 -19 c-25
-11 -93 -34 -152 -52 -104 -32 -114 -33 -278 -33 -136 0 -182 4 -230 18 -241
74 -384 226 -430 457 -25 123 -17 334 17 447 56 186 196 336 368 393 117 39
310 42 432 6z m-4134 -653 l2 -643 -115 0 -115 0 0 645 0 646 113 -3 112 -3 3
-642z m2122 182 c6 -517 7 -523 80 -589 46 -41 92 -56 176 -56 84 0 172 29
279 93 l90 54 3 482 2 481 110 0 110 0 0 -645 0 -645 -110 0 -109 0 -3 65 -3
65 -50 -36 c-163 -117 -342 -160 -500 -119 -132 35 -223 121 -274 259 l-26 71
-3 493 -3 493 113 -3 113 -3 5 -460z"/>
<path d="M6609 5257 c-167 -47 -249 -174 -265 -412 -11 -159 21 -310 85 -405
48 -72 112 -114 196 -130 215 -41 384 80 426 305 16 89 6 347 -16 410 -38 108
-105 181 -199 220 -53 22 -169 28 -227 12z"/>
<path d="M14114 5270 c-104 -15 -192 -70 -247 -153 -31 -47 -67 -140 -67 -174
0 -10 69 -13 360 -13 l360 0 -4 23 c-3 12 -8 44 -11 72 -13 94 -67 171 -150
214 -35 17 -151 43 -180 40 -5 -1 -33 -5 -61 -9z"/>
</g>
</svg>
