<?xml version="1.0" standalone="no"?>
<!DOCTYPE svg PUBLIC "-//W3C//DTD SVG 20010904//EN"
 "http://www.w3.org/TR/2001/REC-SVG-20010904/DTD/svg10.dtd">
<svg version="1.0" xmlns="http://www.w3.org/2000/svg"
 width="1920.000000pt" height="960.000000pt" viewBox="0 0 1920.000000 960.000000"
 preserveAspectRatio="xMidYMid meet">
<metadata>
Created by potrace 1.16, written by Peter Selinger 2001-2019
</metadata>
<g transform="translate(0.000000,960.000000) scale(0.100000,-0.100000)"
fill="#000000" stroke="none">
<path d="M17240 7955 c8 -2 56 -9 105 -15 526 -69 1018 -418 1270 -901 115
-221 172 -428 190 -691 l7 -98 -9226 0 -9226 0 0 161 c0 138 3 174 25 257 121
478 434 871 876 1101 88 46 228 101 344 135 46 14 47 14 10 9 -77 -11 -269
-74 -389 -128 -670 -303 -1126 -920 -1215 -1645 -15 -116 -15 -2554 0 -2670
57 -464 262 -884 594 -1215 330 -331 751 -537 1215 -594 119 -15 15441 -15
15560 0 464 57 885 263 1215 594 332 331 537 751 594 1215 15 116 15 2554 0
2670 -57 465 -262 884 -594 1215 -331 332 -751 537 -1215 594 -74 10 -180 14
-140 6z m-6909 -2081 c98 -17 293 -77 376 -117 l48 -22 3 -138 c2 -107 0 -139
-11 -143 -7 -2 -51 21 -97 51 -105 71 -157 97 -245 125 -455 141 -814 -22
-912 -415 -24 -98 -24 -333 1 -430 56 -219 199 -377 400 -441 71 -22 98 -26
221 -26 143 0 240 14 346 51 l54 18 3 206 2 207 -230 0 -231 0 3 103 3 102
345 0 345 0 3 -371 2 -370 -87 -36 c-92 -37 -255 -87 -358 -110 -95 -20 -331
-15 -441 10 -204 46 -362 136 -466 266 -129 161 -201 419 -184 668 17 257 88
431 241 583 125 126 261 195 452 229 107 19 299 19 414 0z m-6273 -546 c154
-293 316 -599 359 -680 l78 -147 5 677 5 677 113 3 112 3 0 -861 0 -860 -148
0 -147 0 -237 448 c-297 562 -464 876 -517 972 l-41 75 0 -747 0 -748 -115 0
-115 0 0 860 0 860 184 0 183 0 281 -532z m1843 109 c115 -34 218 -125 273
-241 45 -94 59 -165 60 -316 l1 -125 -467 -3 -468 -2 0 -38 c0 -21 7 -64 15
-97 62 -238 276 -347 570 -290 74 14 250 89 287 122 9 8 24 13 33 10 12 -5 15
-27 15 -122 l0 -116 -45 -19 c-25 -11 -93 -34 -152 -52 -105 -32 -113 -33
-283 -33 -163 1 -181 3 -255 28 -217 72 -356 224 -401 437 -23 111 -15 370 16
460 63 187 202 336 365 390 116 39 316 42 436 7z m7475 -17 c58 -28 108 -73
144 -129 l16 -23 79 57 c99 71 154 99 234 120 72 18 214 21 286 5 139 -31 237
-149 271 -327 11 -58 14 -175 14 -529 l0 -454 -115 0 -115 0 0 413 c-1 437 -6
530 -35 591 -40 85 -167 124 -293 92 -74 -19 -125 -43 -209 -99 l-63 -42 0
-477 0 -478 -110 0 -110 0 0 353 c-1 557 -13 650 -93 711 -49 38 -138 53 -219
38 -70 -13 -178 -64 -250 -117 l-48 -35 0 -475 0 -475 -110 0 -110 0 0 645 0
645 110 0 110 0 0 -65 c0 -36 2 -65 3 -65 2 0 40 24 84 54 45 30 107 64 140
76 122 46 284 42 389 -10z m2207 12 c68 -24 130 -66 183 -124 97 -105 133
-218 137 -423 l2 -130 -469 -3 -469 -2 6 -68 c16 -189 144 -330 331 -363 90
-15 222 -6 311 22 74 23 219 92 230 109 3 5 13 10 21 10 11 0 14 -23 14 -124
l0 -123 -57 -21 c-171 -62 -234 -75 -384 -80 -126 -3 -158 -1 -230 17 -243 61
-394 206 -455 436 -25 95 -26 331 -1 425 55 209 195 372 376 437 118 43 338
45 454 5z m-3759 3 c161 -43 263 -145 295 -293 7 -35 11 -214 11 -527 l0 -475
-110 0 -110 0 0 60 c0 33 -2 60 -5 60 -2 0 -38 -22 -78 -48 -96 -63 -216 -103
-328 -109 -144 -9 -248 27 -346 119 -95 90 -134 215 -114 362 35 249 218 363
640 396 75 6 156 11 181 13 l45 2 -3 50 c-4 62 -33 124 -70 152 -106 79 -327
80 -576 3 -54 -16 -100 -30 -102 -30 -2 0 -4 53 -4 119 l0 119 88 16 c154 30
214 35 372 31 101 -2 176 -9 214 -20z m-5119 -122 c26 -112 114 -485 172 -730
15 -62 30 -110 33 -105 4 4 36 99 73 212 36 113 104 325 152 473 l87 267 92 0
93 0 41 -117 c22 -65 94 -279 159 -475 65 -197 120 -358 123 -358 4 0 25 82
48 183 77 339 151 672 159 717 l9 45 117 3 c64 1 117 0 117 -3 0 -3 -27 -106
-59 -228 -33 -122 -82 -307 -109 -412 -27 -104 -75 -292 -108 -417 l-59 -228
-107 0 -107 0 -150 453 c-82 248 -155 466 -161 482 -11 28 -22 -2 -172 -453
l-159 -483 -106 3 -107 3 -8 30 c-5 17 -33 125 -63 240 -30 116 -79 302 -109
415 -30 113 -75 286 -101 385 -25 99 -49 188 -51 198 -5 15 5 17 115 17 l119
0 27 -117z"/>
<path d="M5608 5269 c-150 -22 -280 -149 -304 -296 l-7 -43 360 0 359 0 -7 65
c-20 160 -105 249 -260 275 -35 5 -68 9 -74 9 -5 -1 -36 -5 -67 -10z"/>
<path d="M15277 5269 c-73 -11 -166 -60 -213 -112 -42 -46 -84 -132 -91 -188
l-6 -39 357 0 356 0 0 39 c0 59 -36 161 -71 204 -40 48 -109 83 -190 97 -35 5
-68 9 -74 9 -5 -1 -36 -5 -68 -10z"/>
<path d="M11718 4794 c-253 -25 -353 -59 -411 -141 -34 -48 -47 -139 -27 -197
34 -103 112 -140 278 -134 116 4 163 21 295 103 l57 37 0 174 0 174 -27 -1
c-16 -1 -89 -7 -165 -15z"/>
</g>
</svg>
